<?xml version="1.0" encoding="utf-8"?>
<!-- Generator: Adobe Illustrator 21.1.0, SVG Export Plug-In . SVG Version: 6.00 Build 0)  -->
<svg version="1.1" id="Слой_1" xmlns="http://www.w3.org/2000/svg" xmlns:xlink="http://www.w3.org/1999/xlink" x="0px" y="0px"
	 viewBox="0 0 55 38.2" enable-background="new 0 0 55 38.2" xml:space="preserve">
<title>chat</title>
<desc>Created with Sketch.</desc>
<g id="Index" transform="translate(-1097.000000, -4006.000000)">
	<g id="chat" transform="translate(1097.000000, 4006.000000)">
		<g id="Combined-Shape">
			<path fill="#FFFFFF" d="M35,13.8c-0.9,0-2.1,0-3,0l0,6.7h-6c0,0.8,0,2,0,3h9V13.8z"/>
			<path fill="#FFFFFF" d="M0,0v23.5h6.1l6.7,6.7l6.7-6.7h2.6H23c0-1,0-2.2,0-3h-0.8h-3.9L12.9,26l-5.5-5.5H3V3h29v8l0,0
				c1,0,2,0,3,0l0,0V0H0z"/>
		</g>
		<g id="Combined-Shape-Copy-2">
		</g>
		<g id="Combined-Shape-Copy">
			<path fill="#FFFFFF" d="M42.1,38.2l-6.7-6.7H20V8h35v23.5h-6.1L42.1,38.2z M23,28.5h13.7l5.5,5.5l5.5-5.5H52V11H23V28.5z"/>
		</g>
	</g>
</g>
</svg>
