<?xml version="1.0" encoding="UTF-8"?>
<svg width="381px" height="203px" viewBox="0 0 381 203" version="1.1" xmlns="http://www.w3.org/2000/svg" xmlns:xlink="http://www.w3.org/1999/xlink">
    <!-- Generator: Sketch 48.2 (47327) - http://www.bohemiancoding.com/sketch -->
    <title>logo-lg</title>
    <desc>Created with Sketch.</desc>
    <defs>
        <polygon id="path-1" points="0.341390758 0.0284190476 26.4439439 0.0284190476 26.4439439 34.6190476 0.341390758 34.6190476"></polygon>
        <polygon id="path-3" points="0 202.380952 380.400128 202.380952 380.400128 0.534285714 0 0.534285714"></polygon>
    </defs>
    <g id="Index" stroke="none" stroke-width="1" fill="none" fill-rule="evenodd" transform="translate(-859.000000, -5200.000000)">
        <g id="logo-lg" transform="translate(859.000000, 5200.000000)">
            <g id="Page-1">
                <polygon id="Fill-1" fill="#FFFFFF" points="172 170 172 203 182.088889 203 182.088889 191.923077 191.690476 191.923077 191.690476 184.215385 182.088889 184.215385 182.088889 178.076923 194 178.076923 194 170"></polygon>
                <g id="Group-33">
                    <path d="M210.803895,191.591133 C210.803895,194.447133 209.487419,195.716467 207.263027,195.716467 C205.129427,195.716467 204.266908,194.492467 204.266908,192.0898 L204.266908,178.0818 L195.323946,178.0818 L195.323946,193.631133 C195.323946,199.524467 198.728627,202.380467 203.268202,202.380467 C207.263027,202.380467 209.487419,200.6578 210.803895,198.119133 L210.803895,201.791133 L219.746857,201.791133 L219.746857,178.0818 L210.803895,178.0818 L210.803895,191.591133 Z" id="Fill-2" fill="#FFFFFF"></path>
                    <path d="M239.902081,177.446648 C235.907256,177.446648 233.365094,179.352267 232.048617,181.889314 L232.048617,178.082933 L223.105656,178.082933 L223.105656,201.790648 L232.048617,201.790648 L232.048617,188.689314 C232.048617,185.834933 233.365094,184.563981 235.589486,184.563981 C237.723086,184.563981 238.585605,185.787981 238.585605,188.192267 L238.585605,201.790648 L247.528566,201.790648 L247.528566,186.195981 C247.528566,180.304267 244.39626,177.446648 239.902081,177.446648" id="Fill-4" fill="#FFFFFF"></path>
                    <g id="Group-8" transform="translate(249.321100, 167.761905)">
                        <mask id="mask-2" fill="white">
                            <use xlink:href="#path-1"></use>
                        </mask>
                        <g id="Clip-7"></g>
                        <path d="M17.727961,22.2433714 C17.727961,25.9153714 16.2752971,27.8177524 13.5515525,27.8177524 C10.8732035,27.8177524 9.42053969,25.9607048 9.42053969,22.2870857 L9.42053969,21.9260381 C9.42053969,18.1617524 10.8278078,16.3047048 13.5969482,16.3047048 C16.3206929,16.3047048 17.727961,18.252419 17.727961,21.8790857 L17.727961,22.2433714 Z M17.5009822,13.5830857 C16.1845057,11.1820381 14.0055099,9.68441905 10.2376631,9.68441905 C4.83556948,9.68441905 0.341390758,13.8113714 0.341390758,22.0620381 L0.341390758,22.4230857 C0.341390758,30.7660381 4.92636097,34.6193714 10.2376631,34.6193714 C13.8693227,34.6193714 16.2752971,32.7153714 17.5009822,30.2220381 L17.5009822,34.028419 L26.4439439,34.028419 L26.4439439,0.0284190476 L17.5009822,0.0284190476 L17.5009822,13.5830857 Z" id="Fill-6" fill="#FFFFFF" mask="url(#mask-2)"></path>
                    </g>
                    <mask id="mask-4" fill="white">
                        <use xlink:href="#path-3"></use>
                    </mask>
                    <g id="Clip-10"></g>
                    <path d="M12.9702128,65.2961905 L64.8510638,65.2961905 L64.8510638,13.4866667 L12.9702128,13.4866667 L12.9702128,65.2961905 Z M0,78.2485714 L77.8212766,78.2485714 L77.8212766,0.534285714 L0,0.534285714 L0,78.2485714 Z" id="Fill-9" fill="#FFFFFF" mask="url(#mask-4)"></path>
                    <polygon id="Fill-11" fill="#FFFFFF" mask="url(#mask-4)" points="-0.00016212766 97.8997619 58.8846038 97.8997619 -0.00016212766 149.709286 -0.00016212766 162.661667 77.8211145 162.661667 77.8211145 149.709286 18.8228591 149.709286 77.8211145 97.8997619 77.8211145 84.947381 -0.00016212766 84.947381"></polygon>
                    <polygon id="Fill-12" fill="#FFFFFF" mask="url(#mask-4)" points="85.9466285 78.2482476 163.767905 78.2482476 163.767905 65.2958667 98.9168413 65.2958667 98.9168413 13.4863429 163.767905 13.4863429 163.767905 0.533961905 85.9466285 0.533961905"></polygon>
                    <polygon id="Fill-13" fill="#FFFFFF" mask="url(#mask-4)" points="98.9168413 84.947381 85.9466285 84.947381 85.9466285 162.661667 163.767905 162.661667 163.767905 149.709286 98.9168413 149.709286"></polygon>
                    <path d="M187.152064,119.538819 C195.777255,119.538819 201.951077,115.050819 202.542843,106.528152 L192.281783,106.528152 C191.918617,109.792152 189.830413,111.288152 186.925085,111.288152 C182.93026,111.288152 180.751264,108.341486 180.751264,102.901486 L180.751264,102.538819 C180.751264,97.0518667 182.975655,94.1521524 186.743502,94.1521524 C189.64883,94.1521524 191.192285,95.7841524 191.510055,98.8198667 L202.134281,98.8198667 C201.406328,90.0252 195.414089,86.0374857 186.698106,86.0374857 C177.074209,86.0374857 169.901681,92.5654857 169.901681,102.582533 L169.901681,102.946819 C169.901681,112.874819 175.394566,119.538819 187.152064,119.538819" id="Fill-14" fill="#FFFFFF" mask="url(#mask-4)"></path>
                    <path d="M226.145874,106.845648 C226.145874,103.218981 227.598537,101.222695 230.276886,101.222695 C233.002252,101.222695 234.498691,103.036029 234.498691,106.845648 L234.498691,107.208314 C234.498691,110.833362 233.046027,112.738981 230.322282,112.738981 C227.553142,112.738981 226.145874,110.880314 226.145874,107.208314 L226.145874,106.845648 Z M226.374474,115.548029 C227.598537,117.861648 230.096925,119.538981 233.592397,119.538981 C239.038265,119.538981 243.57784,115.594981 243.57784,107.297362 L243.57784,106.936314 C243.57784,98.6403143 239.038265,94.6040286 233.636171,94.6040286 C230.004512,94.6040286 227.689329,96.4643143 226.374474,98.6840286 L226.374474,95.2403143 L217.429891,95.2403143 L217.429891,126.837648 L226.374474,126.837648 L226.374474,115.548029 Z" id="Fill-15" fill="#FFFFFF" mask="url(#mask-4)"></path>
                    <path d="M254.55145,105.84799 C254.55145,102.990371 255.867927,101.722657 258.09394,101.722657 C260.225918,101.722657 261.088437,102.946657 261.088437,105.349324 L261.088437,118.949324 L270.031399,118.949324 L270.031399,103.354657 C270.031399,97.4597048 266.899093,94.6053238 262.404914,94.6053238 C258.410089,94.6053238 255.867927,96.5077048 254.55145,99.0479905 L254.55145,84.9493238 L245.608489,84.9493238 L245.608489,118.949324 L254.55145,118.949324 L254.55145,105.84799 Z" id="Fill-16" fill="#FFFFFF" mask="url(#mask-4)"></path>
                    <path d="M284.331221,100.317324 C286.735574,100.317324 287.917485,101.858657 288.053672,104.398943 L280.243983,104.398943 C280.60877,101.677324 282.150604,100.317324 284.331221,100.317324 M284.331221,119.538657 C291.91231,119.538657 295.996306,116.410657 296.724259,110.925324 L288.371442,110.925324 C288.053672,112.330657 287.191153,113.46399 284.64737,113.46399 C282.106829,113.46399 280.427187,111.96799 280.200208,109.065038 L296.677242,109.065038 L296.677242,106.890657 C296.677242,98.3679905 291.002774,94.5599905 284.331221,94.5599905 C277.067902,94.5599905 271.166455,99.2746571 271.166455,107.026657 L271.166455,107.389324 C271.166455,115.23199 276.750131,119.538657 284.331221,119.538657" id="Fill-17" fill="#FFFFFF" mask="url(#mask-4)"></path>
                    <path d="M306.891447,108.023667 C306.891447,104.578333 309.569796,102.946333 314.517932,103.263667 L314.517932,94.9223333 C310.931668,94.877 308.389506,96.373 306.891447,100.045 L306.891447,95.2396667 L297.948485,95.2396667 L297.948485,118.949 L306.891447,118.949 L306.891447,108.023667 Z" id="Fill-18" fill="#FFFFFF" mask="url(#mask-4)"></path>
                    <path d="M188.105212,141.402276 L188.105212,141.58199 C188.105212,143.986276 186.74334,145.210276 183.9742,145.210276 L181.8406,145.210276 L181.8406,137.91161 L184.019595,137.91161 C186.74334,137.91161 188.105212,138.86361 188.105212,141.402276 Z M171.581161,130.248657 L171.581161,162.66361 L181.8406,162.66361 L181.8406,152.099324 L184.972906,152.099324 C193.46191,152.099324 197.865297,148.292943 197.865297,141.538276 L197.865297,141.356943 C197.865297,134.420943 193.825076,130.248657 184.518949,130.248657 L171.581161,130.248657 Z" id="Fill-19" fill="#FFFFFF" mask="url(#mask-4)"></path>
                    <path d="M199.09082,138.954762 L199.09082,162.664095 L208.035403,162.664095 L208.035403,151.738762 C208.035403,148.293429 210.712131,146.661429 215.661889,146.977143 L215.661889,138.637429 C212.074003,138.590476 209.531842,140.086476 208.035403,143.760095 L208.035403,138.954762 L199.09082,138.954762 Z" id="Fill-20" fill="#FFFFFF" mask="url(#mask-4)"></path>
                    <polygon id="Fill-21" fill="#FFFFFF" mask="url(#mask-4)" points="217.431026 162.664095 226.328591 162.664095 226.328591 138.954762 217.431026 138.954762"></polygon>
                    <path d="M253.520643,162.663286 L253.520643,147.068619 C253.520643,141.175286 250.386715,138.319286 245.894157,138.319286 C241.899332,138.319286 239.35717,140.223286 238.040694,142.761952 L238.040694,138.953952 L229.097732,138.953952 L229.097732,162.663286 L238.040694,162.663286 L238.040694,149.561952 C238.040694,146.705952 239.35717,145.436619 241.581562,145.436619 C243.715162,145.436619 244.57606,146.660619 244.57606,149.064905 L244.57606,162.663286 L253.520643,162.663286 Z" id="Fill-22" fill="#FFFFFF" mask="url(#mask-4)"></path>
                    <path d="M268.81836,156.66941 C265.913032,156.66941 264.687347,154.720076 264.687347,150.866743 L264.687347,150.502457 C264.687347,146.87579 266.003824,145.064076 268.682173,145.064076 C270.861169,145.064076 271.632896,146.242743 271.950666,148.192076 L280.348879,148.192076 C279.849526,140.75741 274.402037,138.218743 268.455194,138.218743 C261.328062,138.218743 255.60982,142.616076 255.60982,150.68541 L255.60982,151.046457 C255.60982,159.161124 261.1481,163.152076 268.228215,163.152076 C276.217866,163.152076 280.258088,159.25341 280.485066,153.086457 L272.45002,153.086457 C272.223041,155.400076 270.861169,156.66941 268.81836,156.66941" id="Fill-23" fill="#FFFFFF" mask="url(#mask-4)"></path>
                    <polygon id="Fill-24" fill="#FFFFFF" mask="url(#mask-4)" points="281.80057 162.562095 290.698136 162.562095 290.698136 138.852762 281.80057 138.852762"></polygon>
                    <path d="M310.536077,150.820924 C310.536077,154.445971 309.083413,156.35159 306.361289,156.35159 C303.592149,156.35159 302.184881,154.494543 302.184881,150.820924 L302.184881,150.458257 C302.184881,146.83159 303.635923,144.836924 306.314272,144.836924 C309.038017,144.836924 310.536077,146.650257 310.536077,150.458257 L310.536077,150.820924 Z M309.675179,138.218257 C306.043519,138.218257 303.728336,140.076924 302.410238,142.296638 L302.410238,138.852924 L293.468898,138.852924 L293.468898,170.450257 L302.410238,170.450257 L302.410238,159.160638 C303.635923,161.474257 306.132689,163.15159 309.628162,163.15159 C315.077272,163.15159 319.616847,159.20921 319.616847,150.91159 L319.616847,150.548924 C319.616847,142.252924 315.077272,138.218257 309.675179,138.218257 Z" id="Fill-25" fill="#FFFFFF" mask="url(#mask-4)"></path>
                    <polygon id="Fill-26" fill="#FFFFFF" mask="url(#mask-4)" points="321.205698 162.562095 330.101643 162.562095 330.101643 128.562095 321.205698 128.562095"></polygon>
                    <path d="M344.764954,143.930419 C347.170929,143.930419 348.351218,145.471752 348.487406,148.012038 L340.679337,148.012038 C341.042503,145.290419 342.585959,143.930419 344.764954,143.930419 M345.082725,157.077086 C342.540563,157.077086 340.86092,155.581086 340.633942,152.678133 L357.112597,152.678133 L357.112597,150.503752 C357.112597,141.981086 351.438129,138.173086 344.764954,138.173086 C337.503257,138.173086 331.600189,142.887752 331.600189,150.639752 L331.600189,151.002419 C331.600189,158.845086 337.183865,163.151752 344.764954,163.151752 C352.346044,163.151752 356.431661,160.023752 357.159614,154.538419 L348.805176,154.538419 C348.487406,155.943752 347.626508,157.077086 345.082725,157.077086" id="Fill-27" fill="#FFFFFF" mask="url(#mask-4)"></path>
                    <path d="M370.366533,147.23959 C367.689806,146.922257 366.644082,146.514257 366.644082,145.426257 C366.644082,144.51959 367.370414,143.794257 369.004661,143.794257 C370.638908,143.794257 371.36524,144.610257 371.68301,146.01559 L379.719678,146.01559 C379.127912,140.212924 375.087691,138.172924 368.868474,138.172924 C363.057818,138.172924 358.292886,140.756924 358.292886,146.195305 C358.292886,151.274257 361.105801,152.996924 367.506601,153.722257 C370.73132,154.130257 371.68301,154.674257 371.68301,155.716924 C371.68301,156.75959 370.956678,157.392638 369.186244,157.392638 C367.145057,157.392638 366.553291,156.532924 366.23552,154.946257 L358.064286,154.946257 C358.200474,160.340924 362.287712,163.15159 369.233261,163.15159 C375.95021,163.15159 380.398993,160.658257 380.398993,154.810257 C380.398993,149.68759 377.222912,148.099305 370.366533,147.23959" id="Fill-28" fill="#FFFFFF" mask="url(#mask-4)"></path>
                    <polygon id="Fill-29" fill="#FFFFFF" mask="url(#mask-4)" points="281.868664 136.430667 290.76623 136.430667 290.76623 129.072095 281.868664 129.072095"></polygon>
                    <polygon id="Fill-30" fill="#FFFFFF" mask="url(#mask-4)" points="217.497498 136.532667 226.395064 136.532667 226.395064 129.174095 217.497498 129.174095"></polygon>
                    <polygon id="Fill-31" fill="#FFFFFF" mask="url(#mask-4)" points="205.277936 118.946571 214.175502 118.946571 214.175502 95.2372381 205.277936 95.2372381"></polygon>
                    <polygon id="Fill-32" fill="#FFFFFF" mask="url(#mask-4)" points="205.277936 92.8151429 214.175502 92.8151429 214.175502 85.4581905 205.277936 85.4581905"></polygon>
                </g>
            </g>
        </g>
    </g>
</svg>