<?xml version="1.0" encoding="UTF-8"?>
<svg width="293px" height="297px" viewBox="0 0 293 297" version="1.1" xmlns="http://www.w3.org/2000/svg" xmlns:xlink="http://www.w3.org/1999/xlink">
    <!-- Generator: Sketch 48.2 (47327) - http://www.bohemiancoding.com/sketch -->
    <title>approach</title>
    <desc>Created with Sketch.</desc>
    <defs></defs>
    <g id="Index" stroke="none" stroke-width="1" fill="none" fill-rule="evenodd" transform="translate(-1129.000000, -3034.000000)">
        <g id="approach" transform="translate(1129.000000, 3034.000000)">
            <g id="Group-4">
                <path d="M118,281 C174.333044,281 220,235.333044 220,179 C220,122.666956 174.333044,77 118,77 C61.6669555,77 16,122.666956 16,179 C16,235.333044 61.6669555,281 118,281 Z M118,297 C52.8303995,297 0,244.1696 0,179 C0,113.8304 52.8303995,61 118,61 C183.1696,61 236,113.8304 236,179 C236,244.1696 183.1696,297 118,297 Z" id="Oval-3" fill="#30355D" fill-rule="nonzero"></path>
                <path d="M118.5,227 C144.733526,227 166,205.733526 166,179.5 C166,153.266474 144.733526,132 118.5,132 C92.2664744,132 71,153.266474 71,179.5 C71,205.733526 92.2664744,227 118.5,227 Z M118.5,243 C83.4299184,243 55,214.570082 55,179.5 C55,144.429918 83.4299184,116 118.5,116 C153.570082,116 182,144.429918 182,179.5 C182,214.570082 153.570082,243 118.5,243 Z" id="Oval-2" fill="#30355D" fill-rule="nonzero"></path>
                <path d="M258.827777,0.757271635 L258.827777,36.1722232 L293,36.1722232 L248.482905,80.6893179 L248.793587,81 L226.313708,81 L118.5,188.813708 L107.186292,177.5 L214,70.6862915 L214,45.5850485 L258.827777,0.757271635 Z" id="Combined-Shape" fill="#36386E" fill-rule="nonzero"></path>
            </g>
        </g>
    </g>
</svg>