<?xml version="1.0" encoding="UTF-8"?>
<svg width="71px" height="24px" viewBox="0 0 71 24" version="1.1" xmlns="http://www.w3.org/2000/svg" xmlns:xlink="http://www.w3.org/1999/xlink">
    <!-- Generator: Sketch 48.2 (47327) - http://www.bohemiancoding.com/sketch -->
    <title>logo-by</title>
    <desc>Created with Sketch.</desc>
    <defs></defs>
    <g id="Index" stroke="none" stroke-width="1" fill="none" fill-rule="evenodd" transform="translate(-418.000000, -6370.000000)">
        <g id="Group-3-Copy" transform="translate(-1.000000, 5690.000000)" fill="#FFFFFF">
            <g id="logo-by" transform="translate(419.000000, 678.000000)">
                <g id="Group">
                    <g id="Page-1" transform="translate(0.000000, 15.000000)">
                        <path d="M37.8906373,5.5 C37.8906373,8.70061073 35.8539957,9.96307384 34.000562,9.96307384 C32.1460043,9.96307384 30.1093627,8.70061073 30.1093627,5.5 C30.1093627,2.29938927 32.1460043,1.03692616 34.000562,1.03692616 C35.8539957,1.03692616 37.8906373,2.29938927 37.8906373,5.5 M34.000562,6.1639569e-05 C30.7623918,-0.0143855616 29,2.51276332 29,5.5 C29,8.48723668 30.7623918,11.0143856 34.000562,10.9999384 C37.2364842,11.0143856 39,8.48723668 39,5.5 C39,2.51276332 37.2364842,-0.0143855616 34.000562,6.1639569e-05" id="Fill-4"></path>
                        <path d="M21.9718826,9.05121122 L19.0705379,9.05121122 L19.0705379,0.94878878 L21.9718826,0.94878878 C23.7278729,0.94878878 25.9294621,1.92520187 25.9294621,5 C25.9294621,8.07479813 23.7278729,9.05121122 21.9718826,9.05121122 M21.9718826,0 L18,0 L18,10 L21.9718826,10 C25.0811736,10 27,7.8559286 27,5 C27,2.1440714 25.0811736,0 21.9718826,0" id="Fill-7"></path>
                        <polygon id="Fill-9" points="48 9.05121122 48 10 42 10 42 0 43.1810641 0 43.1810641 9.05121122"></polygon>
                        <polygon id="Fill-11" points="58 10 58.974 10 58.974 0 58 0"></polygon>
                        <polygon id="Fill-13" points="71 0 71 10 69.9202283 10 69.7672796 10 63.0181357 1.34204654 63.0181357 10 62 10 62 0 63.0809131 0 63.2292961 0 69.9818643 8.63351397 69.9818643 0"></polygon>
                        <polygon id="Fill-14" points="50.0750552 0.94878878 50.0750552 4.13727157 54.5673289 4.13727157 54.5673289 5.08606035 50.0750552 5.08606035 50.0750552 10 49 10 49 0 55 0 55 0.94878878"></polygon>
                        <path d="M11,5.49944484 C11,9.39002725 8.28702208,11 5.18546042,11 L1.46548196,10.9977793 C0.977382876,10.9977793 0,10.6546886 0,9.62319572 C0,8.70828707 0.690683899,8.49954578 1.34345719,7.67568386 C1.90382337,6.96840618 2.13839526,6.29998991 2.13839526,5.49944484 C2.13839526,4.70001009 1.90382337,4.0304835 1.34345719,3.32320581 C0.690683899,2.50045422 0,2.29171293 0,1.37680428 C0,0.345311396 0.977382876,0.00111032603 1.46548196,0.00111032603 L5.18546042,0 C8.28702208,0 11,1.60997275 11,5.49944484" id="Fill-1"></path>
                    </g>
                    <text id="Power-by" font-family="GraphikLCG-Medium, Graphik LCG" font-size="9" font-weight="400" letter-spacing="1">
                        <tspan x="0" y="9">Power b</tspan>
                        <tspan x="41.785" y="9">y</tspan>
                    </text>
                </g>
            </g>
        </g>
    </g>
</svg>