<?xml version="1.0" encoding="UTF-8" standalone="no"?>
<svg width="116px" height="48px" viewBox="0 0 116 48" version="1.1" xmlns="http://www.w3.org/2000/svg" xmlns:xlink="http://www.w3.org/1999/xlink">
    <!-- Generator: Sketch 48.1 (47250) - http://www.bohemiancoding.com/sketch -->
    <title>Group 32</title>
    <desc>Created with Sketch.</desc>
    <defs>
        <polygon id="path-1" points="0 94 207.672511 94 207.672511 0.046552381 0 0.046552381"></polygon>
    </defs>
    <g id="Menu_Advisory-Black" stroke="none" stroke-width="1" fill="none" fill-rule="evenodd" transform="translate(-92.000000, -46.000000)">
        <g id="Page-1">
            <g id="Group-32">
                <path d="M92.755166,56.67448 L92.755166,56.4730514 C92.755166,50.9342133 96.6708766,47.3246133 101.924868,47.3246133 C106.6832,47.3246133 109.954553,49.53048 110.351081,54.3925181 L104.551864,54.3925181 C104.378383,52.7139467 103.535762,51.8115467 101.949651,51.8115467 C99.8926638,51.8115467 98.6782979,53.4149181 98.6782979,56.44888 L98.6782979,56.6494133 C98.6782979,59.6574133 99.8678809,61.2867467 102.048783,61.2867467 C103.634894,61.2867467 104.774911,60.4604419 104.973174,58.6547467 L110.574128,58.6547467 C110.251949,63.36728 106.881464,65.84888 102.172698,65.84888 C95.7539064,65.84888 92.755166,62.16408 92.755166,56.67448" id="Fill-5" fill="#1D1D1B"></path>
                <path d="M128.020725,59.0306571 L128.020725,58.8301238 C128.020725,56.7245238 127.202887,55.7218571 125.715908,55.7218571 C124.253712,55.7218571 123.460657,56.8247905 123.460657,58.8301238 L123.460657,59.0306571 C123.460657,61.0619524 124.228929,62.0887905 125.740691,62.0887905 C127.22767,62.0887905 128.020725,61.0350952 128.020725,59.0306571 Z M123.584572,52.4130571 L123.584572,54.3172286 C124.303278,53.0898571 125.56721,52.0621238 127.549849,52.0621238 C130.499023,52.0621238 132.977321,54.2930571 132.977321,58.8802571 L132.977321,59.0807905 C132.977321,63.6688857 130.499023,65.8487905 127.525066,65.8487905 C125.616776,65.8487905 124.253712,64.9213238 123.584572,63.6420286 L123.584572,69.8845238 L118.702325,69.8845238 L118.702325,52.4130571 L123.584572,52.4130571 Z" id="Fill-7" fill="#1D1D1B"></path>
                <path d="M138.967809,46.7228343 L138.967809,54.5185676 C139.686516,53.1148343 141.074363,52.0620343 143.255265,52.0620343 C145.70878,52.0620343 147.418805,53.6412343 147.418805,56.899901 L147.418805,65.5228343 L142.536558,65.5228343 L142.536558,58.0037295 C142.536558,56.674301 142.065682,55.997501 140.901767,55.997501 C139.686516,55.997501 138.967809,56.6993676 138.967809,58.2785676 L138.967809,65.5228343 L134.085563,65.5228343 L134.085563,46.7228343 L138.967809,46.7228343 Z" id="Fill-9" fill="#1D1D1B"></path>
                <path d="M155.22562,55.2206133 C154.035152,55.2206133 153.193416,55.9726133 152.994267,57.4775086 L157.257825,57.4775086 C157.183476,56.07288 156.538233,55.2206133 155.22562,55.2206133 M148.038557,59.1310133 L148.038557,58.93048 C148.038557,54.64408 151.260344,52.0371467 155.22562,52.0371467 C158.867833,52.0371467 161.965706,54.1427467 161.965706,58.85528 L161.965706,60.0575848 L152.970369,60.0575848 C153.094284,61.6627467 154.011254,62.4899467 155.398216,62.4899467 C156.786948,62.4899467 157.257825,61.86328 157.431306,61.0862133 L161.991374,61.0862133 C161.593961,64.11928 159.364378,65.84888 155.22562,65.84888 C151.086863,65.84888 148.038557,63.4675467 148.038557,59.1310133" id="Fill-11" fill="#1D1D1B"></path>
                <path d="M167.541876,52.4134152 L167.541876,55.0704819 C168.359714,53.0391867 169.747561,52.2119867 171.705416,52.2379486 L171.705416,56.84932 C169.004071,56.6747486 167.541876,57.5771486 167.541876,59.4822152 L167.541876,65.5232819 L162.659629,65.5232819 L162.659629,52.4134152 L167.541876,52.4134152 Z" id="Fill-13" fill="#1D1D1B"></path>
                <path d="M102.692698,78.0378152 L102.692698,77.9384438 C102.692698,76.5338152 101.949209,76.0074152 100.46223,76.0074152 L99.2726468,76.0074152 L99.2726468,80.0431486 L100.437447,80.0431486 C101.949209,80.0431486 102.692698,79.3663486 102.692698,78.0378152 Z M100.734843,71.7711486 C105.815353,71.7711486 108.021038,74.0772819 108.021038,77.9124819 L108.021038,78.0136438 C108.021038,81.7485771 105.617089,83.8532819 100.982672,83.8532819 L99.2726468,83.8532819 L99.2726468,89.6947105 L93.6716936,89.6947105 L93.6716936,71.7711486 L100.734843,71.7711486 Z" id="Fill-15" fill="#1D1D1B"></path>
                <path d="M113.572868,76.5848438 L113.572868,79.2419105 C114.390706,77.2106152 115.777668,76.3834152 117.736409,76.4093771 L117.736409,81.0207486 C115.034179,80.8461771 113.572868,81.7485771 113.572868,83.6536438 L113.572868,89.6947105 L108.689736,89.6947105 L108.689736,76.5848438 L113.572868,76.5848438 Z" id="Fill-17" fill="#1D1D1B"></path>
                <mask id="mask-2" fill="white">
                    <use xlink:href="#path-1"></use>
                </mask>
                <g id="Clip-20"></g>
                <polygon id="Fill-19" fill="#1D1D1B" mask="url(#mask-2)" points="118.702502 89.6939048 123.559966 89.6939048 123.559966 76.5840381 118.702502 76.5840381"></polygon>
                <path d="M129.95424,76.5848438 L129.95424,78.6904438 C130.672946,77.2858152 132.060793,76.2330152 134.241695,76.2330152 C136.694325,76.2330152 138.405236,77.8122152 138.405236,81.0717771 L138.405236,89.6947105 L133.522104,89.6947105 L133.522104,82.1747105 C133.522104,80.8461771 133.052112,80.1693771 131.887312,80.1693771 C130.672946,80.1693771 129.95424,80.8703486 129.95424,82.4504438 L129.95424,89.6947105 L125.071108,89.6947105 L125.071108,76.5848438 L129.95424,76.5848438 Z" id="Fill-21" fill="#1D1D1B" mask="url(#mask-2)"></path>
                <path d="M139.545253,83.2711086 L139.545253,83.0705752 C139.545253,78.6096038 142.667023,76.1772419 146.558836,76.1772419 C149.805406,76.1772419 152.778478,77.5818705 153.051976,81.6919086 L148.46624,81.6919086 C148.293644,80.6140419 147.871449,79.9632038 146.681866,79.9632038 C145.21967,79.9632038 144.501849,80.9649752 144.501849,82.9703086 L144.501849,83.1717371 C144.501849,85.3024038 145.170104,86.3802705 146.756214,86.3802705 C147.871449,86.3802705 148.614938,85.6775086 148.739738,84.3991086 L153.126325,84.3991086 C153.001525,87.8081752 150.796725,89.9648038 146.434036,89.9648038 C142.568776,89.9648038 139.545253,87.7580419 139.545253,83.2711086" id="Fill-22" fill="#1D1D1B" mask="url(#mask-2)"></path>
                <polygon id="Fill-23" fill="#1D1D1B" mask="url(#mask-2)" points="153.844766 89.6384 158.70223 89.6384 158.70223 76.5285333 153.844766 76.5285333"></polygon>
                <path d="M169.531683,83.1461333 L169.531683,82.9456 C169.531683,80.84 168.713845,79.8373333 167.226866,79.8373333 C165.764671,79.8373333 164.9725,80.9402667 164.9725,82.9456 L164.9725,83.1461333 C164.9725,85.1774286 165.740773,86.2042667 167.252534,86.2042667 C168.738628,86.2042667 169.531683,85.1505714 169.531683,83.1461333 Z M165.09553,76.5285333 L165.09553,78.4327048 C165.815122,77.2053333 167.079054,76.1776 169.061692,76.1776 C172.010866,76.1776 174.489164,78.4085333 174.489164,82.9957333 L174.489164,83.1962667 C174.489164,87.7843619 172.010866,89.9642667 169.036024,89.9642667 C167.127734,89.9642667 165.764671,89.0368 165.09553,87.7575048 L165.09553,94 L160.214169,94 L160.214169,76.5285333 L165.09553,76.5285333 Z" id="Fill-24" fill="#1D1D1B" mask="url(#mask-2)"></path>
                <polygon id="Fill-25" fill="#1D1D1B" mask="url(#mask-2)" points="175.357277 89.6384 180.213855 89.6384 180.213855 70.8384 175.357277 70.8384"></polygon>
                <path d="M188.218315,79.3360895 C187.028732,79.3360895 186.186111,80.0880895 185.987847,81.5929848 L190.250519,81.5929848 C190.17617,80.1883562 189.531813,79.3360895 188.218315,79.3360895 M181.031251,83.2464895 L181.031251,83.0459562 C181.031251,78.7595562 184.253923,76.1526229 188.218315,76.1526229 C191.861413,76.1526229 194.959285,78.2582229 194.959285,82.9707562 L194.959285,84.173061 L185.963064,84.173061 C186.086979,85.7782229 187.003949,86.6054229 188.391796,86.6054229 C189.780528,86.6054229 190.250519,85.9787562 190.424,85.2016895 L194.984953,85.2016895 C194.58754,88.2347562 192.357072,89.9643562 188.218315,89.9643562 C184.079557,89.9643562 181.031251,87.5830229 181.031251,83.2464895" id="Fill-26" fill="#1D1D1B" mask="url(#mask-2)"></path>
                <path d="M195.478931,85.427021 L199.939867,85.427021 C200.113348,86.3043543 200.436412,86.780621 201.550761,86.780621 C202.517297,86.780621 202.913825,86.4296876 202.913825,85.8540495 C202.913825,85.276621 202.393382,84.975821 200.633791,84.750221 C197.139391,84.3491543 195.603731,83.396621 195.603731,80.5891543 C195.603731,77.5811543 198.205059,76.1532495 201.37728,76.1532495 C204.772548,76.1532495 206.978233,77.2803543 207.300412,80.4888876 L202.913825,80.4888876 C202.740344,79.711821 202.343816,79.260621 201.451629,79.260621 C200.559442,79.260621 200.162914,79.6625829 200.162914,80.163021 C200.162914,80.764621 200.733808,80.990221 202.195118,81.1656876 C205.937348,81.641059 207.672157,82.5192876 207.672157,85.351821 C207.672157,88.585421 205.243425,89.9640876 201.576429,89.9640876 C197.783748,89.9640876 195.55328,88.4099543 195.478931,85.427021" id="Fill-27" fill="#1D1D1B" mask="url(#mask-2)"></path>
                <polygon id="Fill-28" fill="#1D1D1B" mask="url(#mask-2)" points="153.88194 75.1892571 158.739404 75.1892571 158.739404 71.1212952 153.88194 71.1212952"></polygon>
                <polygon id="Fill-29" fill="#1D1D1B" mask="url(#mask-2)" points="118.739677 75.2456571 123.59714 75.2456571 123.59714 71.1776952 118.739677 71.1776952"></polygon>
                <polygon id="Fill-30" fill="#1D1D1B" mask="url(#mask-2)" points="112.067745 65.5206857 116.925209 65.5206857 116.925209 52.410819 112.067745 52.410819"></polygon>
                <polygon id="Fill-31" fill="#1D1D1B" mask="url(#mask-2)" points="112.067745 51.0724381 116.925209 51.0724381 116.925209 47.0044762 112.067745 47.0044762"></polygon>
            </g>
        </g>
    </g>
</svg>