<?xml version="1.0" encoding="utf-8"?>
<!-- Generator: Adobe Illustrator 21.1.0, SVG Export Plug-In . SVG Version: 6.00 Build 0)  -->
<svg version="1.1" id="Слой_1" xmlns="http://www.w3.org/2000/svg" xmlns:xlink="http://www.w3.org/1999/xlink" x="0px" y="0px"
	 viewBox="0 0 190 235" enable-background="new 0 0 190 235" xml:space="preserve">
<title>Group 3</title>
<desc>Created with Sketch.</desc>
<g id="Index" transform="translate(-1153.000000, -1388.000000)">
	<g id="Group-3" transform="translate(1153.000000, 1388.000000)">
		
			<linearGradient id="Fill-1_1_" gradientUnits="userSpaceOnUse" x1="-583.5517" y1="500.774" x2="-583.0944" y2="499.9209" gradientTransform="matrix(190 0 0 -235 110943 117704)">
			<stop  offset="0" style="stop-color:#2D3353"/>
			<stop  offset="1" style="stop-color:#3E3E88"/>
		</linearGradient>
		<path id="Fill-1" fill="url(#Fill-1_1_)" d="M173.3,104c0,37.6-16.9,73.5-45.3,95.7c-9.9,7.8-21.1,13.9-33.1,18
			c-12-4.1-23.2-10.1-33.1-18c-28.3-22.1-45.3-58.1-45.3-95.7V50.6c40.3-2.8,65.6-18,78.3-28.2c12.8,10.2,38.1,25.4,78.3,28.2V104z
			 M190,34.6h-8.1c-48.3-1.1-74.4-22.4-81.1-29L95,0l-5.8,5.5c-6.7,6.6-32.8,27.9-81.1,29H0V104c0,42.9,19.4,83.5,51.7,108.7
			c12.2,9.6,26,16.9,40.8,21.6L95,235l2.5-0.8c14.8-4.6,28.7-11.9,40.8-21.6C170.6,187.4,190,146.8,190,104V34.6z"/>
	</g>
</g>
</svg>
