<?xml version="1.0" encoding="utf-8"?>
<!-- Generator: Adobe Illustrator 21.1.0, SVG Export Plug-In . SVG Version: 6.00 Build 0)  -->
<svg version="1.1" id="Слой_1" xmlns="http://www.w3.org/2000/svg" xmlns:xlink="http://www.w3.org/1999/xlink" x="0px" y="0px"
	 viewBox="0 0 236 236" enable-background="new 0 0 236 236" xml:space="preserve">
<title>approach</title>
<desc>Created with Sketch.</desc>
<g id="Index" transform="translate(-1129.000000, -3034.000000)">
	<g id="approach" transform="translate(1129.000000, 3034.000000)">
		<g id="Group-4">
			<path id="Oval-3" fill="#30355D" d="M118,220c56.3,0,102-45.7,102-102S174.3,16,118,16S16,61.7,16,118S61.7,220,118,220z
				 M118,236C52.8,236,0,183.2,0,118S52.8,0,118,0s118,52.8,118,118S183.2,236,118,236z"/>
			<path id="Oval-2" fill="#30355D" d="M118.5,166c26.2,0,47.5-21.3,47.5-47.5S144.7,71,118.5,71S71,92.3,71,118.5
				S92.3,166,118.5,166z M118.5,182C83.4,182,55,153.6,55,118.5S83.4,55,118.5,55S182,83.4,182,118.5S153.6,182,118.5,182z"/>
		</g>
	</g>
</g>
</svg>
