<?xml version="1.0" encoding="UTF-8"?>
<svg width="190px" height="235px" viewBox="0 0 190 235" version="1.1" xmlns="http://www.w3.org/2000/svg" xmlns:xlink="http://www.w3.org/1999/xlink">
    <!-- Generator: Sketch 48.2 (47327) - http://www.bohemiancoding.com/sketch -->
    <title>Group 3</title>
    <desc>Created with Sketch.</desc>
    <defs>
        <linearGradient x1="26.5508594%" y1="14.4085057%" x2="72.2872705%" y2="99.7173754%" id="linearGradient-1">
            <stop stop-color="#2D3353" offset="0%"></stop>
            <stop stop-color="#3E3E88" offset="100%"></stop>
        </linearGradient>
    </defs>
    <g id="Index" stroke="none" stroke-width="1" fill="none" fill-rule="evenodd" transform="translate(-1153.000000, -1388.000000)">
        <g id="Group-3" transform="translate(1153.000000, 1388.000000)" fill="url(#linearGradient-1)">
            <path d="M173.333333,103.952941 C173.333333,141.552941 156.386111,177.494118 128.055556,199.611765 C118.152778,207.444176 106.972222,213.521 95,217.582353 C83.0277778,213.521 71.8444444,207.444176 61.9444444,199.611765 C33.6111111,177.494118 16.6666667,141.552941 16.6666667,103.952941 L16.6666667,50.5941176 C56.9444444,47.8294118 82.2222222,32.6235294 95,22.3941176 C107.775,32.6235294 133.055556,47.8294118 173.333333,50.5941176 L173.333333,103.952941 Z M190,34.5588235 L181.944444,34.5588235 C133.611111,33.4529412 107.5,12.1647059 100.830556,5.52941176 L95,0 L89.1666667,5.52941176 C82.5,12.1647059 56.3888889,33.4529412 8.05555556,34.5588235 L0,34.5588235 L0,103.952941 C0,146.805882 19.4444444,187.447059 51.6666667,212.605882 C63.825,222.238118 77.6694444,229.548 92.5,234.170588 L95,235 L97.5,234.170588 C112.330556,229.553529 126.175,222.243647 138.330556,212.605882 C170.555556,187.447059 190,146.805882 190,103.952941 L190,34.5588235 Z" id="Fill-1"></path>
            <path d="M88.5426053,125.612263 L134.280875,80 L145,90.6895943 L99.2617303,136.301857 L99.2703026,136.310406 L88.5511776,147 L58,116.53299 L68.719125,105.843395 L88.5426053,125.612263 Z" id="Combined-Shape" fill-rule="nonzero"></path>
        </g>
    </g>
</svg>