<svg width="71" height="24" viewBox="0 0 71 24" xmlns="http://www.w3.org/2000/svg">
    <title>
        logo-by
    </title>
    <g fill="#FFF" fill-rule="evenodd">
        <path d="M37.89 18.5c0 3.2-2.036 4.463-3.89 4.463s-3.89-1.262-3.89-4.463c0-3.2 2.036-4.463 3.89-4.463s3.89 1.262 3.89 4.463M34 13c-3.238-.014-5 2.513-5 5.5s1.762 5.514 5 5.5c3.236.014 5-2.513 5-5.5s-1.764-5.514-5-5.5"/>
        <path d="M21.972 22.051H19.07V13.95h2.9c1.757 0 3.958.976 3.958 4.051s-2.201 4.051-3.957 4.051m0-9.051H18v10h3.972C25.082 23 27 20.856 27 18s-1.919-5-5.028-5"/>
        <path d="M48 22.051V23h-6V13h1.181v9.051z"/>
        <path d="M58 23h.974V13H58z"/>
        <path d="M71 13v10h-1.233l-6.749-8.658V23H62V13h1.23l6.752 8.634V13z"/>
        <path d="M50.075 13.949v3.188h4.492v.95h-4.492V23H49V13h6v.949z"/>
        <path d="M11 18.5c0 3.89-2.713 5.5-5.815 5.5l-3.72-.002C.977 23.998 0 23.655 0 22.623c0-.915.69-1.123 1.343-1.947.56-.708.795-1.376.795-2.177 0-.799-.234-1.469-.795-2.176C.691 15.5 0 15.292 0 14.377 0 13.345.977 13 1.465 13L5.185 13C8.287 13 11 14.61 11 18.5"/>
        <text font-family="GraphikLCG-Medium, Graphik LCG" font-size="9" font-weight="400" letter-spacing="1" transform="translate(0 -2)">
            <tspan x="0" y="9">Power b</tspan> <tspan x="41.785" y="9">y</tspan>
        </text>
    </g>
</svg>
