<?xml version="1.0" encoding="UTF-8"?><!DOCTYPE svg PUBLIC "-//W3C//DTD SVG 1.1//EN" "http://www.w3.org/Graphics/SVG/1.1/DTD/svg11.dtd"><svg xmlns="http://www.w3.org/2000/svg" xmlns:xlink="http://www.w3.org/1999/xlink"><defs>
        <path id="a" d="M.341.028h26.103V34.62H.34z"/>
        <path id="c" d="M0 202.381h380.4V.534H0z"/>
    </defs><symbol id="icon-arr-bottom" viewBox="0 0 16.5 10.1">
    <title>
        Scroll Arrow
    </title>
    <path d="M8.2 10.1L0 1.4 1.5 0l6.7 7.2L15 0l1.5 1.4z"/>
</symbol><symbol id="icon-chat" viewBox="0 0 55 38.2">
    <title>
        chat
    </title>
    <g>
        <path d="M35 13.8h-3v6.7h-6v3h9v-9.7z"/>
        <path d="M0 0v23.5h6.1l6.7 6.7 6.7-6.7H23v-3h-4.7L12.9 26l-5.5-5.5H3V3h29v8h3V0H0z"/>
    </g>
    <path d="M42.1 38.2l-6.7-6.7H20V8h35v23.5h-6.1l-6.8 6.7zM23 28.5h13.7l5.5 5.5 5.5-5.5H52V11H23v17.5z"/>
</symbol><symbol id="icon-close" viewBox="0 0 21.29 21.26">
    <title>
        close
    </title>
    <g opacity=".5">
        <path d="M-.006 1.41L1.41-.006 21.25 19.837l-1.414 1.414z"/>
        <path d="M.026 19.85L19.867.007l1.414 1.414L1.44 21.264z"/>
    </g>
</symbol><symbol id="icon-diamond" viewBox="0 0 45 37">
    <title>
        diamond
    </title>
    <path d="M39.17 0H5.83L0 10.6l22.5 25.925L45 10.6 39.17 0zm-1.534 2.855l3.415 6.21h-6.138l2.723-6.21zm-2.91-.136l-2.492 5.687-6.228-5.687h8.72zm-5.803 6.347H16.077L22.5 3.2l6.423 5.865zm-9.93-6.347l-6.226 5.687-2.493-5.687h8.72zm-11.629.136l2.723 6.21H3.949l3.415-6.21zm-2.734 8.93h6.649l6.785 15.48L4.63 11.785zm9.618 0h16.504L22.5 30.61l-8.252-18.825zm12.688 15.48l6.785-15.48h6.65l-13.435 15.48z" fill-rule="nonzero"/>
</symbol><symbol id="icon-facebook" viewBox="0 0 10 19">
    <title>
        facebook
    </title>
    <path d="M9.766.157v2.946H8.014c-.64 0-1.071.134-1.295.402-.223.268-.335.67-.335 1.205v2.11h3.27l-.435 3.303H6.384v8.471H2.97v-8.47H.123V6.82H2.97V4.387c0-1.384.387-2.457 1.161-3.22C4.904.404 5.934.023 7.222.023c1.093 0 1.941.045 2.544.134z" fill-rule="evenodd"/>
</symbol><symbol id="icon-in" viewBox="0 0 16 15">
    <title>
        Shape
    </title>
    <path d="M13 15V8.5S12.563 7 11 7C9.438 7 9 8.5 9 8.5V15H6V5h3v1s1.053-1.5 3.5-1.5C14.946 4.5 16 6 16 8v7h-3zM2 4A2 2 0 1 1 1.999.001 2 2 0 0 1 2 4zm2 11H0V5.025L4 5v10z" fill-rule="nonzero"/>
</symbol><symbol id="icon-logo-lg" viewBox="0 0 381 203">
    <title>
        logo-lg
    </title>
    
    <g fill-rule="evenodd">
        <path d="M172 170v33h10.089v-11.077h9.601v-7.708h-9.601v-6.138H194V170z"/>
        <g>
            <path d="M210.804 191.591c0 2.856-1.317 4.125-3.541 4.125-2.134 0-2.996-1.224-2.996-3.626v-14.008h-8.943v15.55c0 5.892 3.405 8.748 7.944 8.748 3.995 0 6.22-1.722 7.536-4.26v3.671h8.943v-23.71h-8.943v13.51z"/>
            <path d="M239.902 177.447c-3.995 0-6.537 1.905-7.853 4.442v-3.806h-8.943v23.708h8.943v-13.102c0-2.854 1.316-4.125 3.54-4.125 2.134 0 2.997 1.224 2.997 3.628v13.599h8.943v-15.595c0-5.892-3.133-8.75-7.627-8.75"/>
            <g transform="translate(249.321 167.762)">
                <mask id="b">
                    <use xlink:href="#a"/>
                </mask>
                <path d="M17.728 22.243c0 3.672-1.453 5.575-4.176 5.575-2.679 0-4.131-1.857-4.131-5.53v-.362c0-3.764 1.407-5.621 4.176-5.621 2.724 0 4.131 1.947 4.131 5.574v.364zm-.227-8.66c-1.316-2.401-3.495-3.899-7.263-3.899C4.836 9.684.34 13.811.34 22.062v.361c0 8.343 4.585 12.196 9.897 12.196 3.631 0 6.037-1.904 7.263-4.397v3.806h8.943v-34H17.5v13.555z" mask="url(#b)"/>
            </g>
            <mask id="d">
                <use xlink:href="#c"/>
            </mask>
            <path d="M12.97 65.296h51.881v-51.81h-51.88v51.81zM0 78.25h77.821V.534H0V78.25z" mask="url(#d)"/>
            <path mask="url(#d)" d="M0 97.9h58.885L0 149.71v12.952H77.82v-12.953H18.823L77.82 97.9V84.948H0z"/>
            <path mask="url(#d)" d="M85.947 78.248h77.82V65.296h-64.85v-51.81h64.85V.534h-77.82z"/>
            <path mask="url(#d)" d="M98.917 84.947h-12.97v77.715h77.82v-12.953h-64.85z"/>
            <path d="M187.152 119.539c8.625 0 14.8-4.488 15.39-13.01h-10.26c-.363 3.263-2.452 4.76-5.357 4.76-3.995 0-6.174-2.948-6.174-8.388v-.362c0-5.487 2.225-8.387 5.993-8.387 2.905 0 4.448 1.632 4.766 4.668h10.624c-.728-8.795-6.72-12.783-15.436-12.783-9.624 0-16.796 6.528-16.796 16.546v.364c0 9.928 5.493 16.592 17.25 16.592" mask="url(#d)"/>
            <path d="M226.146 106.846c0-3.627 1.453-5.623 4.13-5.623 2.726 0 4.223 1.813 4.223 5.623v.362c0 3.625-1.453 5.531-4.177 5.531-2.769 0-4.176-1.859-4.176-5.53v-.363zm.228 8.702c1.225 2.314 3.723 3.991 7.218 3.991 5.446 0 9.986-3.944 9.986-12.242v-.36c0-8.297-4.54-12.333-9.942-12.333-3.631 0-5.947 1.86-7.262 4.08V95.24h-8.944v31.598h8.944v-11.29z" mask="url(#d)"/>
            <path d="M254.551 105.848c0-2.858 1.317-4.125 3.543-4.125 2.132 0 2.994 1.224 2.994 3.626v13.6h8.943v-15.594c0-5.895-3.132-8.75-7.626-8.75-3.995 0-6.537 1.903-7.854 4.443V84.949h-8.943v34h8.943v-13.101z" mask="url(#d)"/>
            <path d="M284.331 100.317c2.405 0 3.586 1.542 3.723 4.082h-7.81c.365-2.722 1.907-4.082 4.087-4.082m0 19.222c7.581 0 11.665-3.128 12.393-8.614h-8.353c-.317 1.406-1.18 2.539-3.724 2.539-2.54 0-4.22-1.496-4.447-4.399h16.477v-2.174c0-8.523-5.674-12.331-12.346-12.331-7.263 0-13.165 4.715-13.165 12.467v.362c0 7.843 5.584 12.15 13.165 12.15" mask="url(#d)"/>
            <path d="M306.891 108.024c0-3.446 2.679-5.078 7.627-4.76v-8.342c-3.586-.045-6.128 1.451-7.627 5.123V95.24h-8.943v23.709h8.943v-10.925z" mask="url(#d)"/>
            <path d="M188.105 141.402v.18c0 2.404-1.362 3.628-4.13 3.628h-2.134v-7.298h2.179c2.723 0 4.085.952 4.085 3.49zm-16.524-11.153v32.415h10.26v-10.565h3.132c8.489 0 12.892-3.806 12.892-10.56v-.182c0-6.936-4.04-11.108-13.346-11.108H171.58z" mask="url(#d)"/>
            <path d="M199.09 138.955v23.71h8.945v-10.926c0-3.446 2.677-5.078 7.627-4.762v-8.34c-3.588-.047-6.13 1.45-7.627 5.123v-4.805h-8.944z" mask="url(#d)"/>
            <path mask="url(#d)" d="M217.431 162.664h8.898v-23.71h-8.898z"/>
            <path d="M253.52 162.663V147.07c0-5.894-3.133-8.75-7.626-8.75-3.995 0-6.537 1.904-7.853 4.443v-3.808h-8.943v23.71h8.943v-13.102c0-2.856 1.316-4.125 3.54-4.125 2.134 0 2.995 1.224 2.995 3.628v13.598h8.945z" mask="url(#d)"/>
            <path d="M268.818 156.67c-2.905 0-4.13-1.95-4.13-5.803v-.365c0-3.626 1.316-5.438 3.994-5.438 2.18 0 2.95 1.179 3.269 3.128h8.398c-.5-7.435-5.947-9.973-11.894-9.973-7.127 0-12.845 4.397-12.845 12.466v.361c0 8.115 5.538 12.106 12.618 12.106 7.99 0 12.03-3.899 12.257-10.066h-8.035c-.227 2.314-1.589 3.583-3.632 3.583" mask="url(#d)"/>
            <path mask="url(#d)" d="M281.8 162.562h8.898v-23.71h-8.897z"/>
            <path d="M310.536 150.82c0 3.626-1.453 5.532-4.175 5.532-2.769 0-4.176-1.857-4.176-5.531v-.363c0-3.626 1.45-5.621 4.13-5.621 2.723 0 4.221 1.813 4.221 5.621v.363zm-.86-12.602c-3.632 0-5.948 1.859-7.266 4.079v-3.444h-8.941v31.597h8.941v-11.29c1.226 2.314 3.723 3.992 7.218 3.992 5.45 0 9.989-3.943 9.989-12.24v-.363c0-8.296-4.54-12.33-9.942-12.33z" mask="url(#d)"/>
            <path mask="url(#d)" d="M321.206 162.562h8.896v-34h-8.896z"/>
            <path d="M344.765 143.93c2.406 0 3.586 1.542 3.722 4.082h-7.808c.364-2.722 1.907-4.082 4.086-4.082m.318 13.147c-2.542 0-4.222-1.496-4.45-4.399h16.48v-2.174c0-8.523-5.675-12.33-12.348-12.33-7.262 0-13.165 4.714-13.165 12.466v.362c0 7.843 5.584 12.15 13.165 12.15 7.581 0 11.667-3.128 12.395-8.614h-8.355c-.318 1.406-1.178 2.54-3.722 2.54" mask="url(#d)"/>
            <path d="M370.367 147.24c-2.677-.318-3.723-.726-3.723-1.814 0-.906.726-1.632 2.36-1.632 1.635 0 2.361.816 2.679 2.222h8.037c-.592-5.803-4.632-7.843-10.852-7.843-5.81 0-10.575 2.584-10.575 8.022 0 5.08 2.813 6.802 9.214 7.527 3.224.408 4.176.952 4.176 1.995 0 1.043-.726 1.676-2.497 1.676-2.04 0-2.633-.86-2.95-2.447h-8.172c.136 5.395 4.224 8.206 11.17 8.206 6.716 0 11.165-2.494 11.165-8.342 0-5.122-3.176-6.71-10.032-7.57" mask="url(#d)"/>
            <path mask="url(#d)" d="M281.869 136.43h8.897v-7.358h-8.897z"/>
            <path mask="url(#d)" d="M217.497 136.533h8.898v-7.359h-8.898z"/>
            <path mask="url(#d)" d="M205.278 118.947h8.898v-23.71h-8.898z"/>
            <path mask="url(#d)" d="M205.278 92.815h8.898v-7.357h-8.898z"/>
        </g>
    </g>
</symbol></svg>