<svg xmlns="http://www.w3.org/2000/svg" viewBox="0 0 236 236">
    <title>
        approach
    </title>
    <g fill="#30355D">
        <path d="M118 220c56.3 0 102-45.7 102-102S174.3 16 118 16 16 61.7 16 118s45.7 102 102 102zm0 16C52.8 236 0 183.2 0 118S52.8 0 118 0s118 52.8 118 118-52.8 118-118 118z"/>
        <path d="M118.5 166c26.2 0 47.5-21.3 47.5-47.5S144.7 71 118.5 71 71 92.3 71 118.5 92.3 166 118.5 166zm0 16C83.4 182 55 153.6 55 118.5S83.4 55 118.5 55 182 83.4 182 118.5 153.6 182 118.5 182z"/>
    </g>
</svg>
