<svg width="190" height="235" viewBox="0 0 190 235" xmlns="http://www.w3.org/2000/svg">
    <title>
        Group 3
    </title>
    <defs>
        <linearGradient x1="26.551%" y1="14.409%" x2="72.287%" y2="99.717%" id="a">
            <stop stop-color="#2D3353" offset="0%"/>
            <stop stop-color="#3E3E88" offset="100%"/>
        </linearGradient>
    </defs>
    <g fill="url(#a)" fill-rule="evenodd">
        <path d="M173.333 103.953c0 37.6-16.947 73.541-45.277 95.659A110.505 110.505 0 0 1 95 217.582a110.471 110.471 0 0 1-33.056-17.97c-28.333-22.118-45.277-58.06-45.277-95.66V50.595C56.944 47.83 82.222 32.624 95 22.394c12.775 10.23 38.056 25.435 78.333 28.2v53.359zM190 34.559h-8.056c-48.333-1.106-74.444-22.394-81.113-29.03L95 0l-5.833 5.53C82.5 12.164 56.389 33.452 8.056 34.558H0v69.394c0 42.853 19.444 83.494 51.667 108.653A126.255 126.255 0 0 0 92.5 234.17L95 235l2.5-.83a126 126 0 0 0 40.83-21.564c32.226-25.159 51.67-65.8 51.67-108.653V34.559z"/>
        <path d="M88.543 125.612L134.28 80 145 90.69l-45.738 45.612.008.008L88.551 147 58 116.533l10.72-10.69 19.823 19.77z" fill-rule="nonzero"/>
    </g>
</svg>
